<svg width="320" height="320" viewBox="0 0 320 320" fill="none" xmlns="http://www.w3.org/2000/svg" role="img" aria-label="炸 做法贴纸">
  <defs>
    <linearGradient id="stickerBg" x1="56" y1="36" x2="246" y2="277" gradientUnits="userSpaceOnUse">
      <stop stop-color="#FFF0C6"/>
      <stop offset="1" stop-color="#FFD889"/>
    </linearGradient>
    <filter id="softShadow" x="16" y="14" width="288" height="292" color-interpolation-filters="sRGB">
      <feDropShadow dx="0" dy="6" stdDeviation="5" flood-color="#163F2E" flood-opacity="0.16"/>
    </filter>
  </defs>
  <path d="M56 118C44 74 78 34 127 31C177 25 224 47 239 95C269 102 274 151 252 174C265 218 232 269 183 278C148 284 95 276 68 252C37 225 28 161 56 118Z" fill="url(#stickerBg)" stroke="#FFFFFF" stroke-width="12" stroke-linejoin="round" filter="url(#softShadow)"/>
  <path d="M56 118C44 74 78 34 127 31C177 25 224 47 239 95C269 102 274 151 252 174C265 218 232 269 183 278C148 284 95 276 68 252C37 225 28 161 56 118Z" stroke="#F4C25D" stroke-width="3" stroke-linejoin="round" opacity="0.72"/>
  <text x="160" y="138" text-anchor="middle" dominant-baseline="middle" font-family="STKaiti, KaiTi, 'Microsoft YaHei', sans-serif" font-size="96" font-weight="900" stroke="#FFF8E8" stroke-width="10" stroke-linejoin="round" paint-order="stroke fill" fill="#E6401F">炸</text>
  <g>
    <path d="M83 199H218L204 248H96Z" fill="#FF5E12" stroke="#FFF8E8" stroke-width="5" stroke-linejoin="round"/>
    <path d="M92 192H210" stroke="#FF5E12" stroke-width="12" stroke-linecap="round"/>
    <circle cx="121" cy="184" r="7" fill="#FF5E12"/><circle cx="151" cy="177" r="6" fill="#FF5E12"/><circle cx="181" cy="184" r="7" fill="#FF5E12"/>  </g>
</svg>
