<svg width="320" height="320" viewBox="0 0 320 320" fill="none" xmlns="http://www.w3.org/2000/svg" role="img" aria-label="爆 做法贴纸">
  <defs>
    <linearGradient id="stickerBg" x1="56" y1="36" x2="246" y2="277" gradientUnits="userSpaceOnUse">
      <stop stop-color="#FFE9DA"/>
      <stop offset="1" stop-color="#FFD4BE"/>
    </linearGradient>
    <filter id="softShadow" x="16" y="14" width="288" height="292" color-interpolation-filters="sRGB">
      <feDropShadow dx="0" dy="6" stdDeviation="5" flood-color="#163F2E" flood-opacity="0.16"/>
    </filter>
  </defs>
  <path d="M61 116C52 68 93 29 145 32C199 28 241 63 244 116C270 132 267 180 247 199C253 243 211 276 159 278C101 281 55 255 45 211C26 191 31 139 61 116Z" fill="url(#stickerBg)" stroke="#FFFFFF" stroke-width="12" stroke-linejoin="round" filter="url(#softShadow)"/>
  <path d="M61 116C52 68 93 29 145 32C199 28 241 63 244 116C270 132 267 180 247 199C253 243 211 276 159 278C101 281 55 255 45 211C26 191 31 139 61 116Z" stroke="#F4B290" stroke-width="3" stroke-linejoin="round" opacity="0.72"/>
  <text x="160" y="138" text-anchor="middle" dominant-baseline="middle" font-family="STKaiti, KaiTi, 'Microsoft YaHei', sans-serif" font-size="96" font-weight="900" stroke="#FFF8E8" stroke-width="10" stroke-linejoin="round" paint-order="stroke fill" fill="#C83319">爆</text>
  <g>
    <path d="M76 209C108 222 177 223 224 200C219 236 189 253 145 251C105 249 82 232 76 209Z" fill="#D93A10" stroke="#FFF8E8" stroke-width="5" stroke-linejoin="round"/>
    <path d="M141 191C128 176 147 162 145 143C165 160 178 175 162 192" fill="#FFB04E" stroke="#FFF8E8" stroke-width="4" stroke-linejoin="round"/>  </g>
</svg>
